<svg width="20" height="20" viewBox="0 0 20 20" fill="none" xmlns="http://www.w3.org/2000/svg">
<path d="M10 20C15.5228 20 20 15.5228 20 10C20 4.47715 15.5228 0 10 0C4.47715 0 0 4.47715 0 10C0 15.5228 4.47715 20 10 20Z" fill="#F0F0F0"/>
<path d="M19.8434 6.52173H0.156601C0.0534668 7.00394 0 7.50549 0 8.00001H20C20 7.50549 19.9465 7.00394 19.8434 6.52173Z" fill="#D80027"/>
<path d="M0.156601 13.4783H19.8434C19.9465 12.9961 20 12.4945 20 12H0C0 12.4945 0.0534668 12.9961 0.156601 13.4783Z" fill="#D80027"/>
<path d="M10 0C6.29492 0 3.06445 1.93652 1.17871 4.78262H18.8213C16.9355 1.93652 13.7051 0 10 0Z" fill="#D80027"/>
<path d="M18.8213 15.2174H1.17871C3.06445 18.0635 6.29492 20 10 20C13.7051 20 16.9355 18.0635 18.8213 15.2174Z" fill="#D80027"/>
<path d="M0 8H20V12H0V8Z" fill="#FFDA44"/>
</svg>