<svg width="20" height="20" viewBox="0 0 20 20" fill="none" xmlns="http://www.w3.org/2000/svg">
<path d="M10 20C15.5228 20 20 15.5228 20 10C20 4.47715 15.5228 0 10 0C4.47715 0 0 4.47715 0 10C0 15.5228 4.47715 20 10 20Z" fill="#F0F0F0"/>
<path d="M1.7269 3.79785C1.06983 4.64297 0.560555 5.61816 0.240234 6.6739H5.54492L1.7269 3.79785Z" fill="#0052B4"/>
<path d="M19.7597 6.6739C19.4394 5.61816 18.9301 4.64297 18.2731 3.79785L14.455 6.6739H19.7597Z" fill="#0052B4"/>
<path d="M0.240234 13.3261C0.560586 14.3818 1.06987 15.357 1.7269 16.2021L5.54488 13.3261H0.240234Z" fill="#0052B4"/>
<path d="M16.2022 1.72693C15.3571 1.06986 14.3819 0.560547 13.3262 0.240234V5.54492L16.2022 1.72693Z" fill="#0052B4"/>
<path d="M3.79785 18.2731C4.64297 18.9302 5.61816 19.4395 6.6739 19.7598V14.4551L3.79785 18.2731Z" fill="#0052B4"/>
<path d="M6.6739 0.240234C5.61816 0.560586 4.64297 1.06987 3.79785 1.7269L6.6739 4.60292V0.240234Z" fill="#0052B4"/>
<path d="M13.3262 19.7598C14.3819 19.4394 15.3571 18.9302 16.2022 18.2731L13.3262 15.3971V19.7598Z" fill="#0052B4"/>
<path d="M14.455 13.3261L18.2731 16.2021C18.9301 15.357 19.4394 14.3818 19.7597 13.3261H14.455Z" fill="#0052B4"/>
<path d="M19.9149 8.69565H11.3044H11.3044V0.0851562C10.8754 0.0292969 10.4412 0 10 0C9.55875 0 9.1246 0.0292969 8.69565 0.0851562V8.69562V8.69565H0.0851562C0.0292969 9.1246 0 9.55875 0 10C0 10.4413 0.0292969 10.8754 0.0851562 11.3044H8.69562H8.69565V19.9149C9.1246 19.9707 9.55875 20 10 20C10.4412 20 10.8754 19.9707 11.3044 19.9149V11.3044V11.3044H19.9149C19.9707 10.8754 20 10.4413 20 10C20 9.55875 19.9707 9.1246 19.9149 8.69565Z" fill="#D80027"/>
<path d="M13.3262 13.3261L17.0712 17.0711C17.2488 16.8934 17.4181 16.7076 17.5795 16.5156L14.3902 13.3261H13.3262V13.3261Z" fill="#D80027"/>
<path d="M6.67387 13.3261H6.67383L2.92871 17.0712C3.10645 17.2488 3.29223 17.4181 3.48418 17.5795L6.67387 14.3899V13.3261Z" fill="#D80027"/>
<path d="M6.67391 6.67394V6.67390L2.92879 2.92871C2.75117 3.10645 2.58184 3.29223 2.4204 3.48422L5.60997 6.67394H6.67391Z" fill="#D80027"/>
<path d="M13.3262 6.67394L17.0713 2.92875C16.8936 2.75113 16.7078 2.58180 16.5158 2.42035L13.3262 5.60996V6.67394Z" fill="#D80027"/>
</svg>