<svg width="20" height="20" viewBox="0 0 20 20" fill="none" xmlns="http://www.w3.org/2000/svg">
<path d="M10 20C15.5228 20 20 15.5228 20 10C20 4.47715 15.5228 0 10 0C4.47715 0 0 4.47715 0 10C0 15.5228 4.47715 20 10 20Z" fill="#6DA544"/>
<path d="M10.0001 3.91302L18.261 9.99998L10.0001 16.0869L1.73926 9.99998L10.0001 3.91302Z" fill="#FFDA44"/>
<path d="M9.99973 13.4782C11.9207 13.4782 13.478 11.921 13.478 9.99997C13.478 8.07899 11.9207 6.52173 9.99973 6.52173C8.07875 6.52173 6.52148 8.07899 6.52148 9.99997C6.52148 11.921 8.07875 13.4782 9.99973 13.4782Z" fill="#F0F0F0"/>
<path d="M8.26047 9.78259C7.65562 9.78259 7.07191 9.87459 6.52246 10.0453C6.5468 11.9453 8.09383 13.4783 9.99961 13.4783C11.178 13.4783 12.2188 12.8917 12.848 11.9951C11.7716 10.6476 10.1153 9.78259 8.26047 9.78259Z" fill="#0052B4"/>
<path d="M13.4138 10.6664C13.4557 10.4506 13.4783 10.228 13.4783 9.99997C13.4783 8.07896 11.921 6.52173 10 6.52173C8.56668 6.52173 7.33621 7.38896 6.80371 8.62716C7.27441 8.52962 7.76176 8.47825 8.26094 8.47825C10.2811 8.47821 12.1087 9.31798 13.4138 10.6664Z" fill="#0052B4"/>
</svg>